<svg xmlns="http://www.w3.org/2000/svg" width="1154" height="517" fill="none" viewBox="0 0 1154 517"><mask id="path-1-outside-1_3187_114" width="958" height="86" x="93.266" y="248.003" fill="#000" maskUnits="userSpaceOnUse"><rect width="958" height="86" x="93.266" y="248.003" fill="#fff"/><path d="M155.702 284.267C155.702 293.018 153.185 299.989 148.15 305.181C142.493 311.364 135.054 314.456 125.833 314.456C117.008 314.456 109.54 311.306 103.431 305.006C97.3209 298.705 94.2661 290.947 94.2661 281.729C94.2661 272.512 97.3209 264.754 103.431 258.453C109.54 252.153 117.008 249.003 125.833 249.003C130.302 249.003 134.516 249.819 138.476 251.453C142.436 253.086 145.689 255.391 148.235 258.366L142.634 264.141C140.767 261.808 138.335 259.999 135.337 258.716C132.395 257.374 129.227 256.703 125.833 256.703C119.214 256.703 113.613 259.066 109.031 263.791C104.505 268.575 102.243 274.554 102.243 281.729C102.243 288.905 104.505 294.884 109.031 299.668C113.613 304.393 119.214 306.756 125.833 306.756C131.886 306.756 136.92 305.006 140.937 301.506C144.954 298.005 147.273 293.193 147.895 287.067H125.833V279.542H155.278C155.561 281.175 155.702 282.75 155.702 284.267Z"/><path d="M161.039 291.617C161.039 285.025 163.048 279.571 167.064 275.254C171.137 270.937 176.257 268.779 182.423 268.779C188.589 268.779 193.681 270.937 197.697 275.254C201.77 279.571 203.807 285.025 203.807 291.617C203.807 298.268 201.77 303.722 197.697 307.981C193.681 312.298 188.589 314.456 182.423 314.456C176.257 314.456 171.137 312.298 167.064 307.981C163.048 303.664 161.039 298.21 161.039 291.617ZM168.846 291.617C168.846 296.226 170.147 299.96 172.749 302.818C175.352 305.677 178.576 307.106 182.423 307.106C186.27 307.106 189.494 305.677 192.097 302.818C194.699 299.96 196 296.226 196 291.617C196 287.067 194.699 283.363 192.097 280.504C189.438 277.588 186.213 276.129 182.423 276.129C178.633 276.129 175.408 277.588 172.749 280.504C170.147 283.363 168.846 287.067 168.846 291.617Z"/><path d="M208.522 291.617C208.522 285.025 210.531 279.571 214.547 275.254C218.62 270.937 223.74 268.779 229.906 268.779C236.072 268.779 241.164 270.937 245.18 275.254C249.253 279.571 251.29 285.025 251.29 291.617C251.29 298.268 249.253 303.722 245.18 307.981C241.164 312.298 236.072 314.456 229.906 314.456C223.74 314.456 218.62 312.298 214.547 307.981C210.531 303.664 208.522 298.21 208.522 291.617ZM216.329 291.617C216.329 296.226 217.63 299.96 220.232 302.818C222.835 305.677 226.059 307.106 229.906 307.106C233.753 307.106 236.977 305.677 239.58 302.818C242.182 299.96 243.483 296.226 243.483 291.617C243.483 287.067 242.182 283.363 239.58 280.504C236.921 277.588 233.696 276.129 229.906 276.129C226.116 276.129 222.891 277.588 220.232 280.504C217.63 283.363 216.329 287.067 216.329 291.617Z"/><path d="M277.05 307.106C280.896 307.106 284.036 305.677 286.469 302.818C289.014 299.96 290.287 296.226 290.287 291.617C290.287 287.126 289.014 283.421 286.469 280.504C283.98 277.588 280.84 276.129 277.05 276.129C273.316 276.129 270.176 277.588 267.631 280.504C265.085 283.421 263.812 287.126 263.812 291.617C263.812 296.168 265.085 299.872 267.631 302.731C270.176 305.647 273.316 307.106 277.05 307.106ZM276.795 333.357C274.476 333.357 272.298 333.036 270.261 332.395C268.225 331.811 266.358 330.965 264.661 329.857C263.02 328.749 261.606 327.436 260.418 325.919C259.23 324.403 258.325 322.711 257.702 320.844L265.085 317.694C265.934 320.202 267.404 322.215 269.497 323.732C271.591 325.248 274.023 326.007 276.795 326.007C281.038 326.007 284.347 324.694 286.723 322.069C289.099 319.444 290.287 315.827 290.287 311.219V307.106H289.948C288.477 309.381 286.469 311.189 283.923 312.531C281.434 313.814 278.719 314.456 275.777 314.456C270.346 314.456 265.679 312.269 261.776 307.893C257.929 303.401 256.005 297.976 256.005 291.617C256.005 285.259 257.929 279.863 261.776 275.429C265.679 270.996 270.346 268.779 275.777 268.779C278.719 268.779 281.434 269.45 283.923 270.791C286.469 272.075 288.477 273.854 289.948 276.129H290.287V270.179H297.755V311.219C297.755 318.102 295.859 323.498 292.069 327.407C288.222 331.374 283.131 333.357 276.795 333.357Z"/><path d="M315.08 250.403V313.056H307.273V250.403H315.08Z"/><path d="M342.846 314.456C336.737 314.456 331.702 312.298 327.742 307.981C323.782 303.664 321.802 298.21 321.802 291.617C321.802 285.084 323.725 279.659 327.572 275.342C331.419 270.966 336.341 268.779 342.337 268.779C348.503 268.779 353.397 270.85 357.017 274.992C360.694 279.075 362.533 284.821 362.533 292.23L362.448 293.105H329.779C329.892 297.305 331.249 300.689 333.852 303.256C336.454 305.822 339.565 307.106 343.186 307.106C348.164 307.106 352.067 304.539 354.896 299.405L361.854 302.906C359.987 306.522 357.385 309.352 354.047 311.394C350.766 313.435 347.033 314.456 342.846 314.456ZM330.373 286.455H354.217C353.991 283.48 352.803 281.029 350.653 279.104C348.56 277.121 345.732 276.129 342.168 276.129C339.226 276.129 336.68 277.063 334.53 278.929C332.437 280.796 331.051 283.305 330.373 286.455Z"/><path d="M389.675 313.056V250.403H408.259C417.536 250.403 424.975 253.29 430.576 259.066C436.233 264.841 439.061 272.396 439.061 281.729C439.061 291.122 436.233 298.705 430.576 304.481C424.975 310.198 417.536 313.056 408.259 313.056H389.675ZM397.482 258.103V305.356H408.259C415.33 305.356 420.902 303.285 424.975 299.143C429.048 294.943 431.085 289.138 431.085 281.729C431.085 274.379 429.048 268.604 424.975 264.404C420.902 260.203 415.33 258.103 408.259 258.103H397.482Z"/><path d="M464.413 314.456C458.303 314.456 453.268 312.298 449.308 307.981C445.348 303.664 443.369 298.21 443.369 291.617C443.369 285.084 445.292 279.659 449.139 275.342C452.986 270.966 457.907 268.779 463.904 268.779C470.07 268.779 474.963 270.85 478.584 274.992C482.261 279.075 484.099 284.821 484.099 292.23L484.015 293.105H451.345C451.458 297.305 452.816 300.689 455.418 303.256C458.02 305.822 461.132 307.106 464.752 307.106C469.73 307.106 473.634 304.539 476.462 299.405L483.421 302.906C481.554 306.522 478.952 309.352 475.614 311.394C472.333 313.435 468.599 314.456 464.413 314.456ZM451.939 286.455H475.784C475.557 283.48 474.369 281.029 472.22 279.104C470.127 277.121 467.298 276.129 463.734 276.129C460.792 276.129 458.247 277.063 456.097 278.929C454.004 280.796 452.618 283.305 451.939 286.455Z"/><path d="M510.606 313.056H502.799L485.997 270.179H494.483L506.702 303.431H506.872L519.261 270.179H527.577L510.606 313.056Z"/><path d="M550.098 314.456C543.988 314.456 538.953 312.298 534.993 307.981C531.033 303.664 529.053 298.21 529.053 291.617C529.053 285.084 530.977 279.659 534.824 275.342C538.67 270.966 543.592 268.779 549.589 268.779C555.755 268.779 560.648 270.85 564.269 274.992C567.946 279.075 569.784 284.821 569.784 292.23L569.7 293.105H537.03C537.143 297.305 538.501 300.689 541.103 303.256C543.705 305.822 546.817 307.106 550.437 307.106C555.415 307.106 559.319 304.539 562.147 299.405L569.105 302.906C567.239 306.522 564.636 309.352 561.299 311.394C558.018 313.435 554.284 314.456 550.098 314.456ZM537.624 286.455H561.468C561.242 283.48 560.054 281.029 557.905 279.104C555.811 277.121 552.983 276.129 549.419 276.129C546.477 276.129 543.931 277.063 541.782 278.929C539.689 280.796 538.303 283.305 537.624 286.455Z"/><path d="M584.73 250.403V313.056H576.924V250.403H584.73Z"/><path d="M591.453 291.617C591.453 285.025 593.461 279.571 597.477 275.254C601.55 270.937 606.67 268.779 612.836 268.779C619.003 268.779 624.094 270.937 628.11 275.254C632.184 279.571 634.22 285.025 634.22 291.617C634.22 298.268 632.184 303.722 628.11 307.981C624.094 312.298 619.003 314.456 612.836 314.456C606.67 314.456 601.55 312.298 597.477 307.981C593.461 303.664 591.453 298.21 591.453 291.617ZM599.259 291.617C599.259 296.226 600.56 299.96 603.163 302.818C605.765 305.677 608.989 307.106 612.836 307.106C616.683 307.106 619.908 305.677 622.51 302.818C625.112 299.96 626.413 296.226 626.413 291.617C626.413 287.067 625.112 283.363 622.51 280.504C619.851 277.588 616.627 276.129 612.836 276.129C609.046 276.129 605.822 277.588 603.163 280.504C600.56 283.363 599.259 287.067 599.259 291.617Z"/><path d="M661.263 307.106C664.996 307.106 668.136 305.647 670.682 302.731C673.227 299.872 674.5 296.168 674.5 291.617C674.5 287.126 673.227 283.421 670.682 280.504C668.136 277.588 664.996 276.129 661.263 276.129C657.472 276.129 654.304 277.588 651.759 280.504C649.27 283.421 648.025 287.126 648.025 291.617C648.025 296.168 649.27 299.901 651.759 302.818C654.304 305.677 657.472 307.106 661.263 307.106ZM662.536 314.456C659.481 314.456 656.68 313.785 654.135 312.444C651.646 311.102 649.722 309.323 648.365 307.106H648.025L648.365 313.056V331.957H640.558V270.179H648.025V276.129H648.365C649.722 273.912 651.646 272.133 654.135 270.791C656.68 269.45 659.481 268.779 662.536 268.779C668.023 268.779 672.662 270.996 676.452 275.429C680.355 279.921 682.307 285.317 682.307 291.617C682.307 297.976 680.355 303.372 676.452 307.806C672.662 312.239 668.023 314.456 662.536 314.456Z"/><path d="M708.126 314.456C702.016 314.456 696.981 312.298 693.021 307.981C689.061 303.664 687.081 298.21 687.081 291.617C687.081 285.084 689.005 279.659 692.852 275.342C696.699 270.966 701.62 268.779 707.617 268.779C713.783 268.779 718.676 270.85 722.297 274.992C725.974 279.075 727.812 284.821 727.812 292.23L727.728 293.105H695.058C695.171 297.305 696.529 300.689 699.131 303.256C701.733 305.822 704.845 307.106 708.465 307.106C713.443 307.106 717.347 304.539 720.175 299.405L727.134 302.906C725.267 306.522 722.665 309.352 719.327 311.394C716.046 313.435 712.312 314.456 708.126 314.456ZM695.652 286.455H719.497C719.27 283.48 718.082 281.029 715.933 279.104C713.839 277.121 711.011 276.129 707.447 276.129C704.505 276.129 701.96 277.063 699.81 278.929C697.717 280.796 696.331 283.305 695.652 286.455Z"/><path d="M742.758 313.056H734.952V270.179H742.419V277.179H742.758C743.55 274.904 745.163 272.979 747.595 271.404C750.084 269.77 752.517 268.954 754.893 268.954C757.156 268.954 759.079 269.304 760.663 270.004L758.287 277.792C757.325 277.383 755.798 277.179 753.705 277.179C750.763 277.179 748.189 278.404 745.983 280.854C743.833 283.305 742.758 286.163 742.758 289.43V313.056Z"/><path d="M842.59 284.267C842.59 293.018 840.072 299.989 835.038 305.181C829.38 311.364 821.941 314.456 812.72 314.456C803.895 314.456 796.428 311.306 790.318 305.006C784.209 298.705 781.154 290.947 781.154 281.729C781.154 272.512 784.209 264.754 790.318 258.453C796.428 252.153 803.895 249.003 812.72 249.003C817.189 249.003 821.404 249.819 825.364 251.453C829.324 253.086 832.577 255.391 835.122 258.366L829.522 264.141C827.655 261.808 825.222 259.999 822.224 258.716C819.283 257.374 816.115 256.703 812.72 256.703C806.102 256.703 800.501 259.066 795.919 263.791C791.393 268.575 789.13 274.554 789.13 281.729C789.13 288.905 791.393 294.884 795.919 299.668C800.501 304.393 806.102 306.756 812.72 306.756C818.773 306.756 823.808 305.006 827.825 301.506C831.841 298.005 834.161 293.193 834.783 287.067H812.72V279.542H842.166C842.448 281.175 842.59 282.75 842.59 284.267Z"/><path d="M856.867 313.056H849.06V270.179H856.527V277.179H856.867C857.659 274.904 859.271 272.979 861.704 271.404C864.193 269.77 866.625 268.954 869.001 268.954C871.264 268.954 873.188 269.304 874.771 270.004L872.396 277.792C871.434 277.383 869.906 277.179 867.813 277.179C864.872 277.179 862.298 278.404 860.091 280.854C857.942 283.305 856.867 286.163 856.867 289.43V313.056Z"/><path d="M874.942 291.617C874.942 285.025 876.95 279.571 880.967 275.254C885.04 270.937 890.159 268.779 896.326 268.779C902.492 268.779 907.583 270.937 911.6 275.254C915.673 279.571 917.709 285.025 917.709 291.617C917.709 298.268 915.673 303.722 911.6 307.981C907.583 312.298 902.492 314.456 896.326 314.456C890.159 314.456 885.04 312.298 880.967 307.981C876.95 303.664 874.942 298.21 874.942 291.617ZM882.749 291.617C882.749 296.226 884.05 299.96 886.652 302.818C889.254 305.677 892.479 307.106 896.326 307.106C900.172 307.106 903.397 305.677 905.999 302.818C908.601 299.96 909.903 296.226 909.903 291.617C909.903 287.067 908.601 283.363 905.999 280.504C903.34 277.588 900.116 276.129 896.326 276.129C892.535 276.129 889.311 277.588 886.652 280.504C884.05 283.363 882.749 287.067 882.749 291.617Z"/><path d="M960.875 313.056H953.407V307.106H953.068C951.88 309.206 950.041 310.956 947.552 312.356C945.12 313.756 942.574 314.456 939.915 314.456C934.824 314.456 930.892 312.969 928.12 309.993C925.405 306.96 924.047 302.672 924.047 297.13V270.179H931.854V296.605C932.024 303.606 935.446 307.106 942.121 307.106C945.233 307.106 947.835 305.822 949.928 303.256C952.021 300.63 953.068 297.509 953.068 293.893V270.179H960.875V313.056Z"/><path d="M990.743 307.106C994.477 307.106 997.617 305.647 1000.16 302.731C1002.71 299.872 1003.98 296.168 1003.98 291.617C1003.98 287.126 1002.71 283.421 1000.16 280.504C997.617 277.588 994.477 276.129 990.743 276.129C986.953 276.129 983.785 277.588 981.24 280.504C978.75 283.421 977.506 287.126 977.506 291.617C977.506 296.168 978.75 299.901 981.24 302.818C983.785 305.677 986.953 307.106 990.743 307.106ZM992.016 314.456C988.961 314.456 986.161 313.785 983.615 312.444C981.126 311.102 979.203 309.323 977.845 307.106H977.506L977.845 313.056V331.957H970.039V270.179H977.506V276.129H977.845C979.203 273.912 981.126 272.133 983.615 270.791C986.161 269.45 988.961 268.779 992.016 268.779C997.504 268.779 1002.14 270.996 1005.93 275.429C1009.84 279.921 1011.79 285.317 1011.79 291.617C1011.79 297.976 1009.84 303.372 1005.93 307.806C1002.14 312.239 997.504 314.456 992.016 314.456Z"/><path d="M1050.34 301.155C1050.34 304.889 1048.76 308.039 1045.59 310.606C1042.43 313.173 1038.44 314.456 1033.63 314.456C1029.44 314.456 1025.76 313.348 1022.6 311.131C1019.43 308.856 1017.17 305.881 1015.81 302.206L1022.77 299.143C1023.78 301.71 1025.26 303.722 1027.18 305.181C1029.16 306.581 1031.31 307.281 1033.63 307.281C1036.12 307.281 1038.18 306.727 1039.82 305.618C1041.52 304.51 1042.37 303.197 1042.37 301.681C1042.37 298.939 1040.33 296.926 1036.26 295.643L1029.13 293.805C1021.04 291.705 1017 287.68 1017 281.729C1017 277.821 1018.52 274.7 1021.58 272.366C1024.69 269.975 1028.65 268.779 1033.46 268.779C1037.14 268.779 1040.45 269.683 1043.39 271.491C1046.38 273.3 1048.48 275.721 1049.67 278.754L1042.71 281.729C1041.92 279.921 1040.61 278.521 1038.8 277.529C1037.05 276.479 1035.07 275.954 1032.86 275.954C1030.83 275.954 1028.99 276.479 1027.35 277.529C1025.76 278.579 1024.97 279.863 1024.97 281.379C1024.97 283.83 1027.21 285.58 1031.68 286.63L1037.96 288.292C1046.22 290.392 1050.34 294.68 1050.34 301.155Z"/></mask><path fill="#fff" d="M155.702 284.267C155.702 293.018 153.185 299.989 148.15 305.181C142.493 311.364 135.054 314.456 125.833 314.456C117.008 314.456 109.54 311.306 103.431 305.006C97.3209 298.705 94.2661 290.947 94.2661 281.729C94.2661 272.512 97.3209 264.754 103.431 258.453C109.54 252.153 117.008 249.003 125.833 249.003C130.302 249.003 134.516 249.819 138.476 251.453C142.436 253.086 145.689 255.391 148.235 258.366L142.634 264.141C140.767 261.808 138.335 259.999 135.337 258.716C132.395 257.374 129.227 256.703 125.833 256.703C119.214 256.703 113.613 259.066 109.031 263.791C104.505 268.575 102.243 274.554 102.243 281.729C102.243 288.905 104.505 294.884 109.031 299.668C113.613 304.393 119.214 306.756 125.833 306.756C131.886 306.756 136.92 305.006 140.937 301.506C144.954 298.005 147.273 293.193 147.895 287.067H125.833V279.542H155.278C155.561 281.175 155.702 282.75 155.702 284.267Z"/><path fill="#fff" d="M161.039 291.617C161.039 285.025 163.048 279.571 167.064 275.254C171.137 270.937 176.257 268.779 182.423 268.779C188.589 268.779 193.681 270.937 197.697 275.254C201.77 279.571 203.807 285.025 203.807 291.617C203.807 298.268 201.77 303.722 197.697 307.981C193.681 312.298 188.589 314.456 182.423 314.456C176.257 314.456 171.137 312.298 167.064 307.981C163.048 303.664 161.039 298.21 161.039 291.617ZM168.846 291.617C168.846 296.226 170.147 299.96 172.749 302.818C175.352 305.677 178.576 307.106 182.423 307.106C186.27 307.106 189.494 305.677 192.097 302.818C194.699 299.96 196 296.226 196 291.617C196 287.067 194.699 283.363 192.097 280.504C189.438 277.588 186.213 276.129 182.423 276.129C178.633 276.129 175.408 277.588 172.749 280.504C170.147 283.363 168.846 287.067 168.846 291.617Z"/><path fill="#fff" d="M208.522 291.617C208.522 285.025 210.531 279.571 214.547 275.254C218.62 270.937 223.74 268.779 229.906 268.779C236.072 268.779 241.164 270.937 245.18 275.254C249.253 279.571 251.29 285.025 251.29 291.617C251.29 298.268 249.253 303.722 245.18 307.981C241.164 312.298 236.072 314.456 229.906 314.456C223.74 314.456 218.62 312.298 214.547 307.981C210.531 303.664 208.522 298.21 208.522 291.617ZM216.329 291.617C216.329 296.226 217.63 299.96 220.232 302.818C222.835 305.677 226.059 307.106 229.906 307.106C233.753 307.106 236.977 305.677 239.58 302.818C242.182 299.96 243.483 296.226 243.483 291.617C243.483 287.067 242.182 283.363 239.58 280.504C236.921 277.588 233.696 276.129 229.906 276.129C226.116 276.129 222.891 277.588 220.232 280.504C217.63 283.363 216.329 287.067 216.329 291.617Z"/><path fill="#fff" d="M277.05 307.106C280.896 307.106 284.036 305.677 286.469 302.818C289.014 299.96 290.287 296.226 290.287 291.617C290.287 287.126 289.014 283.421 286.469 280.504C283.98 277.588 280.84 276.129 277.05 276.129C273.316 276.129 270.176 277.588 267.631 280.504C265.085 283.421 263.812 287.126 263.812 291.617C263.812 296.168 265.085 299.872 267.631 302.731C270.176 305.647 273.316 307.106 277.05 307.106ZM276.795 333.357C274.476 333.357 272.298 333.036 270.261 332.395C268.225 331.811 266.358 330.965 264.661 329.857C263.02 328.749 261.606 327.436 260.418 325.919C259.23 324.403 258.325 322.711 257.702 320.844L265.085 317.694C265.934 320.202 267.404 322.215 269.497 323.732C271.591 325.248 274.023 326.007 276.795 326.007C281.038 326.007 284.347 324.694 286.723 322.069C289.099 319.444 290.287 315.827 290.287 311.219V307.106H289.948C288.477 309.381 286.469 311.189 283.923 312.531C281.434 313.814 278.719 314.456 275.777 314.456C270.346 314.456 265.679 312.269 261.776 307.893C257.929 303.401 256.005 297.976 256.005 291.617C256.005 285.259 257.929 279.863 261.776 275.429C265.679 270.996 270.346 268.779 275.777 268.779C278.719 268.779 281.434 269.45 283.923 270.791C286.469 272.075 288.477 273.854 289.948 276.129H290.287V270.179H297.755V311.219C297.755 318.102 295.859 323.498 292.069 327.407C288.222 331.374 283.131 333.357 276.795 333.357Z"/><path fill="#fff" d="M315.08 250.403V313.056H307.273V250.403H315.08Z"/><path fill="#fff" d="M342.846 314.456C336.737 314.456 331.702 312.298 327.742 307.981C323.782 303.664 321.802 298.21 321.802 291.617C321.802 285.084 323.725 279.659 327.572 275.342C331.419 270.966 336.341 268.779 342.337 268.779C348.503 268.779 353.397 270.85 357.017 274.992C360.694 279.075 362.533 284.821 362.533 292.23L362.448 293.105H329.779C329.892 297.305 331.249 300.689 333.852 303.256C336.454 305.822 339.565 307.106 343.186 307.106C348.164 307.106 352.067 304.539 354.896 299.405L361.854 302.906C359.987 306.522 357.385 309.352 354.047 311.394C350.766 313.435 347.033 314.456 342.846 314.456ZM330.373 286.455H354.217C353.991 283.48 352.803 281.029 350.653 279.104C348.56 277.121 345.732 276.129 342.168 276.129C339.226 276.129 336.68 277.063 334.53 278.929C332.437 280.796 331.051 283.305 330.373 286.455Z"/><path fill="#fff" d="M389.675 313.056V250.403H408.259C417.536 250.403 424.975 253.29 430.576 259.066C436.233 264.841 439.061 272.396 439.061 281.729C439.061 291.122 436.233 298.705 430.576 304.481C424.975 310.198 417.536 313.056 408.259 313.056H389.675ZM397.482 258.103V305.356H408.259C415.33 305.356 420.902 303.285 424.975 299.143C429.048 294.943 431.085 289.138 431.085 281.729C431.085 274.379 429.048 268.604 424.975 264.404C420.902 260.203 415.33 258.103 408.259 258.103H397.482Z"/><path fill="#fff" d="M464.413 314.456C458.303 314.456 453.268 312.298 449.308 307.981C445.348 303.664 443.369 298.21 443.369 291.617C443.369 285.084 445.292 279.659 449.139 275.342C452.986 270.966 457.907 268.779 463.904 268.779C470.07 268.779 474.963 270.85 478.584 274.992C482.261 279.075 484.099 284.821 484.099 292.23L484.015 293.105H451.345C451.458 297.305 452.816 300.689 455.418 303.256C458.02 305.822 461.132 307.106 464.752 307.106C469.73 307.106 473.634 304.539 476.462 299.405L483.421 302.906C481.554 306.522 478.952 309.352 475.614 311.394C472.333 313.435 468.599 314.456 464.413 314.456ZM451.939 286.455H475.784C475.557 283.48 474.369 281.029 472.22 279.104C470.127 277.121 467.298 276.129 463.734 276.129C460.792 276.129 458.247 277.063 456.097 278.929C454.004 280.796 452.618 283.305 451.939 286.455Z"/><path fill="#fff" d="M510.606 313.056H502.799L485.997 270.179H494.483L506.702 303.431H506.872L519.261 270.179H527.577L510.606 313.056Z"/><path fill="#fff" d="M550.098 314.456C543.988 314.456 538.953 312.298 534.993 307.981C531.033 303.664 529.053 298.21 529.053 291.617C529.053 285.084 530.977 279.659 534.824 275.342C538.67 270.966 543.592 268.779 549.589 268.779C555.755 268.779 560.648 270.85 564.269 274.992C567.946 279.075 569.784 284.821 569.784 292.23L569.7 293.105H537.03C537.143 297.305 538.501 300.689 541.103 303.256C543.705 305.822 546.817 307.106 550.437 307.106C555.415 307.106 559.319 304.539 562.147 299.405L569.105 302.906C567.239 306.522 564.636 309.352 561.299 311.394C558.018 313.435 554.284 314.456 550.098 314.456ZM537.624 286.455H561.468C561.242 283.48 560.054 281.029 557.905 279.104C555.811 277.121 552.983 276.129 549.419 276.129C546.477 276.129 543.931 277.063 541.782 278.929C539.689 280.796 538.303 283.305 537.624 286.455Z"/><path fill="#fff" d="M584.73 250.403V313.056H576.924V250.403H584.73Z"/><path fill="#fff" d="M591.453 291.617C591.453 285.025 593.461 279.571 597.477 275.254C601.55 270.937 606.67 268.779 612.836 268.779C619.003 268.779 624.094 270.937 628.11 275.254C632.184 279.571 634.22 285.025 634.22 291.617C634.22 298.268 632.184 303.722 628.11 307.981C624.094 312.298 619.003 314.456 612.836 314.456C606.67 314.456 601.55 312.298 597.477 307.981C593.461 303.664 591.453 298.21 591.453 291.617ZM599.259 291.617C599.259 296.226 600.56 299.96 603.163 302.818C605.765 305.677 608.989 307.106 612.836 307.106C616.683 307.106 619.908 305.677 622.51 302.818C625.112 299.96 626.413 296.226 626.413 291.617C626.413 287.067 625.112 283.363 622.51 280.504C619.851 277.588 616.627 276.129 612.836 276.129C609.046 276.129 605.822 277.588 603.163 280.504C600.56 283.363 599.259 287.067 599.259 291.617Z"/><path fill="#fff" d="M661.263 307.106C664.996 307.106 668.136 305.647 670.682 302.731C673.227 299.872 674.5 296.168 674.5 291.617C674.5 287.126 673.227 283.421 670.682 280.504C668.136 277.588 664.996 276.129 661.263 276.129C657.472 276.129 654.304 277.588 651.759 280.504C649.27 283.421 648.025 287.126 648.025 291.617C648.025 296.168 649.27 299.901 651.759 302.818C654.304 305.677 657.472 307.106 661.263 307.106ZM662.536 314.456C659.481 314.456 656.68 313.785 654.135 312.444C651.646 311.102 649.722 309.323 648.365 307.106H648.025L648.365 313.056V331.957H640.558V270.179H648.025V276.129H648.365C649.722 273.912 651.646 272.133 654.135 270.791C656.68 269.45 659.481 268.779 662.536 268.779C668.023 268.779 672.662 270.996 676.452 275.429C680.355 279.921 682.307 285.317 682.307 291.617C682.307 297.976 680.355 303.372 676.452 307.806C672.662 312.239 668.023 314.456 662.536 314.456Z"/><path fill="#fff" d="M708.126 314.456C702.016 314.456 696.981 312.298 693.021 307.981C689.061 303.664 687.081 298.21 687.081 291.617C687.081 285.084 689.005 279.659 692.852 275.342C696.699 270.966 701.62 268.779 707.617 268.779C713.783 268.779 718.676 270.85 722.297 274.992C725.974 279.075 727.812 284.821 727.812 292.23L727.728 293.105H695.058C695.171 297.305 696.529 300.689 699.131 303.256C701.733 305.822 704.845 307.106 708.465 307.106C713.443 307.106 717.347 304.539 720.175 299.405L727.134 302.906C725.267 306.522 722.665 309.352 719.327 311.394C716.046 313.435 712.312 314.456 708.126 314.456ZM695.652 286.455H719.497C719.27 283.48 718.082 281.029 715.933 279.104C713.839 277.121 711.011 276.129 707.447 276.129C704.505 276.129 701.96 277.063 699.81 278.929C697.717 280.796 696.331 283.305 695.652 286.455Z"/><path fill="#fff" d="M742.758 313.056H734.952V270.179H742.419V277.179H742.758C743.55 274.904 745.163 272.979 747.595 271.404C750.084 269.77 752.517 268.954 754.893 268.954C757.156 268.954 759.079 269.304 760.663 270.004L758.287 277.792C757.325 277.383 755.798 277.179 753.705 277.179C750.763 277.179 748.189 278.404 745.983 280.854C743.833 283.305 742.758 286.163 742.758 289.43V313.056Z"/><path fill="#fff" d="M842.59 284.267C842.59 293.018 840.072 299.989 835.038 305.181C829.38 311.364 821.941 314.456 812.72 314.456C803.895 314.456 796.428 311.306 790.318 305.006C784.209 298.705 781.154 290.947 781.154 281.729C781.154 272.512 784.209 264.754 790.318 258.453C796.428 252.153 803.895 249.003 812.72 249.003C817.189 249.003 821.404 249.819 825.364 251.453C829.324 253.086 832.577 255.391 835.122 258.366L829.522 264.141C827.655 261.808 825.222 259.999 822.224 258.716C819.283 257.374 816.115 256.703 812.72 256.703C806.102 256.703 800.501 259.066 795.919 263.791C791.393 268.575 789.13 274.554 789.13 281.729C789.13 288.905 791.393 294.884 795.919 299.668C800.501 304.393 806.102 306.756 812.72 306.756C818.773 306.756 823.808 305.006 827.825 301.506C831.841 298.005 834.161 293.193 834.783 287.067H812.72V279.542H842.166C842.448 281.175 842.59 282.75 842.59 284.267Z"/><path fill="#fff" d="M856.867 313.056H849.06V270.179H856.527V277.179H856.867C857.659 274.904 859.271 272.979 861.704 271.404C864.193 269.77 866.625 268.954 869.001 268.954C871.264 268.954 873.188 269.304 874.771 270.004L872.396 277.792C871.434 277.383 869.906 277.179 867.813 277.179C864.872 277.179 862.298 278.404 860.091 280.854C857.942 283.305 856.867 286.163 856.867 289.43V313.056Z"/><path fill="#fff" d="M874.942 291.617C874.942 285.025 876.95 279.571 880.967 275.254C885.04 270.937 890.159 268.779 896.326 268.779C902.492 268.779 907.583 270.937 911.6 275.254C915.673 279.571 917.709 285.025 917.709 291.617C917.709 298.268 915.673 303.722 911.6 307.981C907.583 312.298 902.492 314.456 896.326 314.456C890.159 314.456 885.04 312.298 880.967 307.981C876.95 303.664 874.942 298.21 874.942 291.617ZM882.749 291.617C882.749 296.226 884.05 299.96 886.652 302.818C889.254 305.677 892.479 307.106 896.326 307.106C900.172 307.106 903.397 305.677 905.999 302.818C908.601 299.96 909.903 296.226 909.903 291.617C909.903 287.067 908.601 283.363 905.999 280.504C903.34 277.588 900.116 276.129 896.326 276.129C892.535 276.129 889.311 277.588 886.652 280.504C884.05 283.363 882.749 287.067 882.749 291.617Z"/><path fill="#fff" d="M960.875 313.056H953.407V307.106H953.068C951.88 309.206 950.041 310.956 947.552 312.356C945.12 313.756 942.574 314.456 939.915 314.456C934.824 314.456 930.892 312.969 928.12 309.993C925.405 306.96 924.047 302.672 924.047 297.13V270.179H931.854V296.605C932.024 303.606 935.446 307.106 942.121 307.106C945.233 307.106 947.835 305.822 949.928 303.256C952.021 300.63 953.068 297.509 953.068 293.893V270.179H960.875V313.056Z"/><path fill="#fff" d="M990.743 307.106C994.477 307.106 997.617 305.647 1000.16 302.731C1002.71 299.872 1003.98 296.168 1003.98 291.617C1003.98 287.126 1002.71 283.421 1000.16 280.504C997.617 277.588 994.477 276.129 990.743 276.129C986.953 276.129 983.785 277.588 981.24 280.504C978.75 283.421 977.506 287.126 977.506 291.617C977.506 296.168 978.75 299.901 981.24 302.818C983.785 305.677 986.953 307.106 990.743 307.106ZM992.016 314.456C988.961 314.456 986.161 313.785 983.615 312.444C981.126 311.102 979.203 309.323 977.845 307.106H977.506L977.845 313.056V331.957H970.039V270.179H977.506V276.129H977.845C979.203 273.912 981.126 272.133 983.615 270.791C986.161 269.45 988.961 268.779 992.016 268.779C997.504 268.779 1002.14 270.996 1005.93 275.429C1009.84 279.921 1011.79 285.317 1011.79 291.617C1011.79 297.976 1009.84 303.372 1005.93 307.806C1002.14 312.239 997.504 314.456 992.016 314.456Z"/><path fill="#fff" d="M1050.34 301.155C1050.34 304.889 1048.76 308.039 1045.59 310.606C1042.43 313.173 1038.44 314.456 1033.63 314.456C1029.44 314.456 1025.76 313.348 1022.6 311.131C1019.43 308.856 1017.17 305.881 1015.81 302.206L1022.77 299.143C1023.78 301.71 1025.26 303.722 1027.18 305.181C1029.16 306.581 1031.31 307.281 1033.63 307.281C1036.12 307.281 1038.18 306.727 1039.82 305.618C1041.52 304.51 1042.37 303.197 1042.37 301.681C1042.37 298.939 1040.33 296.926 1036.26 295.643L1029.13 293.805C1021.04 291.705 1017 287.68 1017 281.729C1017 277.821 1018.52 274.7 1021.58 272.366C1024.69 269.975 1028.65 268.779 1033.46 268.779C1037.14 268.779 1040.45 269.683 1043.39 271.491C1046.38 273.3 1048.48 275.721 1049.67 278.754L1042.71 281.729C1041.92 279.921 1040.61 278.521 1038.8 277.529C1037.05 276.479 1035.07 275.954 1032.86 275.954C1030.83 275.954 1028.99 276.479 1027.35 277.529C1025.76 278.579 1024.97 279.863 1024.97 281.379C1024.97 283.83 1027.21 285.58 1031.68 286.63L1037.96 288.292C1046.22 290.392 1050.34 294.68 1050.34 301.155Z"/><path stroke="#fff" stroke-width=".6" d="M155.702 284.267C155.702 293.018 153.185 299.989 148.15 305.181C142.493 311.364 135.054 314.456 125.833 314.456C117.008 314.456 109.54 311.306 103.431 305.006C97.3209 298.705 94.2661 290.947 94.2661 281.729C94.2661 272.512 97.3209 264.754 103.431 258.453C109.54 252.153 117.008 249.003 125.833 249.003C130.302 249.003 134.516 249.819 138.476 251.453C142.436 253.086 145.689 255.391 148.235 258.366L142.634 264.141C140.767 261.808 138.335 259.999 135.337 258.716C132.395 257.374 129.227 256.703 125.833 256.703C119.214 256.703 113.613 259.066 109.031 263.791C104.505 268.575 102.243 274.554 102.243 281.729C102.243 288.905 104.505 294.884 109.031 299.668C113.613 304.393 119.214 306.756 125.833 306.756C131.886 306.756 136.92 305.006 140.937 301.506C144.954 298.005 147.273 293.193 147.895 287.067H125.833V279.542H155.278C155.561 281.175 155.702 282.75 155.702 284.267Z" mask="url(#path-1-outside-1_3187_114)"/><path stroke="#fff" stroke-width=".6" d="M161.039 291.617C161.039 285.025 163.048 279.571 167.064 275.254C171.137 270.937 176.257 268.779 182.423 268.779C188.589 268.779 193.681 270.937 197.697 275.254C201.77 279.571 203.807 285.025 203.807 291.617C203.807 298.268 201.77 303.722 197.697 307.981C193.681 312.298 188.589 314.456 182.423 314.456C176.257 314.456 171.137 312.298 167.064 307.981C163.048 303.664 161.039 298.21 161.039 291.617ZM168.846 291.617C168.846 296.226 170.147 299.96 172.749 302.818C175.352 305.677 178.576 307.106 182.423 307.106C186.27 307.106 189.494 305.677 192.097 302.818C194.699 299.96 196 296.226 196 291.617C196 287.067 194.699 283.363 192.097 280.504C189.438 277.588 186.213 276.129 182.423 276.129C178.633 276.129 175.408 277.588 172.749 280.504C170.147 283.363 168.846 287.067 168.846 291.617Z" mask="url(#path-1-outside-1_3187_114)"/><path stroke="#fff" stroke-width=".6" d="M208.522 291.617C208.522 285.025 210.531 279.571 214.547 275.254C218.62 270.937 223.74 268.779 229.906 268.779C236.072 268.779 241.164 270.937 245.18 275.254C249.253 279.571 251.29 285.025 251.29 291.617C251.29 298.268 249.253 303.722 245.18 307.981C241.164 312.298 236.072 314.456 229.906 314.456C223.74 314.456 218.62 312.298 214.547 307.981C210.531 303.664 208.522 298.21 208.522 291.617ZM216.329 291.617C216.329 296.226 217.63 299.96 220.232 302.818C222.835 305.677 226.059 307.106 229.906 307.106C233.753 307.106 236.977 305.677 239.58 302.818C242.182 299.96 243.483 296.226 243.483 291.617C243.483 287.067 242.182 283.363 239.58 280.504C236.921 277.588 233.696 276.129 229.906 276.129C226.116 276.129 222.891 277.588 220.232 280.504C217.63 283.363 216.329 287.067 216.329 291.617Z" mask="url(#path-1-outside-1_3187_114)"/><path stroke="#fff" stroke-width=".6" d="M277.05 307.106C280.896 307.106 284.036 305.677 286.469 302.818C289.014 299.96 290.287 296.226 290.287 291.617C290.287 287.126 289.014 283.421 286.469 280.504C283.98 277.588 280.84 276.129 277.05 276.129C273.316 276.129 270.176 277.588 267.631 280.504C265.085 283.421 263.812 287.126 263.812 291.617C263.812 296.168 265.085 299.872 267.631 302.731C270.176 305.647 273.316 307.106 277.05 307.106ZM276.795 333.357C274.476 333.357 272.298 333.036 270.261 332.395C268.225 331.811 266.358 330.965 264.661 329.857C263.02 328.749 261.606 327.436 260.418 325.919C259.23 324.403 258.325 322.711 257.702 320.844L265.085 317.694C265.934 320.202 267.404 322.215 269.497 323.732C271.591 325.248 274.023 326.007 276.795 326.007C281.038 326.007 284.347 324.694 286.723 322.069C289.099 319.444 290.287 315.827 290.287 311.219V307.106H289.948C288.477 309.381 286.469 311.189 283.923 312.531C281.434 313.814 278.719 314.456 275.777 314.456C270.346 314.456 265.679 312.269 261.776 307.893C257.929 303.401 256.005 297.976 256.005 291.617C256.005 285.259 257.929 279.863 261.776 275.429C265.679 270.996 270.346 268.779 275.777 268.779C278.719 268.779 281.434 269.45 283.923 270.791C286.469 272.075 288.477 273.854 289.948 276.129H290.287V270.179H297.755V311.219C297.755 318.102 295.859 323.498 292.069 327.407C288.222 331.374 283.131 333.357 276.795 333.357Z" mask="url(#path-1-outside-1_3187_114)"/><path stroke="#fff" stroke-width=".6" d="M315.08 250.403V313.056H307.273V250.403H315.08Z" mask="url(#path-1-outside-1_3187_114)"/><path stroke="#fff" stroke-width=".6" d="M342.846 314.456C336.737 314.456 331.702 312.298 327.742 307.981C323.782 303.664 321.802 298.21 321.802 291.617C321.802 285.084 323.725 279.659 327.572 275.342C331.419 270.966 336.341 268.779 342.337 268.779C348.503 268.779 353.397 270.85 357.017 274.992C360.694 279.075 362.533 284.821 362.533 292.23L362.448 293.105H329.779C329.892 297.305 331.249 300.689 333.852 303.256C336.454 305.822 339.565 307.106 343.186 307.106C348.164 307.106 352.067 304.539 354.896 299.405L361.854 302.906C359.987 306.522 357.385 309.352 354.047 311.394C350.766 313.435 347.033 314.456 342.846 314.456ZM330.373 286.455H354.217C353.991 283.48 352.803 281.029 350.653 279.104C348.56 277.121 345.732 276.129 342.168 276.129C339.226 276.129 336.68 277.063 334.53 278.929C332.437 280.796 331.051 283.305 330.373 286.455Z" mask="url(#path-1-outside-1_3187_114)"/><path stroke="#fff" stroke-width=".6" d="M389.675 313.056V250.403H408.259C417.536 250.403 424.975 253.29 430.576 259.066C436.233 264.841 439.061 272.396 439.061 281.729C439.061 291.122 436.233 298.705 430.576 304.481C424.975 310.198 417.536 313.056 408.259 313.056H389.675ZM397.482 258.103V305.356H408.259C415.33 305.356 420.902 303.285 424.975 299.143C429.048 294.943 431.085 289.138 431.085 281.729C431.085 274.379 429.048 268.604 424.975 264.404C420.902 260.203 415.33 258.103 408.259 258.103H397.482Z" mask="url(#path-1-outside-1_3187_114)"/><path stroke="#fff" stroke-width=".6" d="M464.413 314.456C458.303 314.456 453.268 312.298 449.308 307.981C445.348 303.664 443.369 298.21 443.369 291.617C443.369 285.084 445.292 279.659 449.139 275.342C452.986 270.966 457.907 268.779 463.904 268.779C470.07 268.779 474.963 270.85 478.584 274.992C482.261 279.075 484.099 284.821 484.099 292.23L484.015 293.105H451.345C451.458 297.305 452.816 300.689 455.418 303.256C458.02 305.822 461.132 307.106 464.752 307.106C469.73 307.106 473.634 304.539 476.462 299.405L483.421 302.906C481.554 306.522 478.952 309.352 475.614 311.394C472.333 313.435 468.599 314.456 464.413 314.456ZM451.939 286.455H475.784C475.557 283.48 474.369 281.029 472.22 279.104C470.127 277.121 467.298 276.129 463.734 276.129C460.792 276.129 458.247 277.063 456.097 278.929C454.004 280.796 452.618 283.305 451.939 286.455Z" mask="url(#path-1-outside-1_3187_114)"/><path stroke="#fff" stroke-width=".6" d="M510.606 313.056H502.799L485.997 270.179H494.483L506.702 303.431H506.872L519.261 270.179H527.577L510.606 313.056Z" mask="url(#path-1-outside-1_3187_114)"/><path stroke="#fff" stroke-width=".6" d="M550.098 314.456C543.988 314.456 538.953 312.298 534.993 307.981C531.033 303.664 529.053 298.21 529.053 291.617C529.053 285.084 530.977 279.659 534.824 275.342C538.67 270.966 543.592 268.779 549.589 268.779C555.755 268.779 560.648 270.85 564.269 274.992C567.946 279.075 569.784 284.821 569.784 292.23L569.7 293.105H537.03C537.143 297.305 538.501 300.689 541.103 303.256C543.705 305.822 546.817 307.106 550.437 307.106C555.415 307.106 559.319 304.539 562.147 299.405L569.105 302.906C567.239 306.522 564.636 309.352 561.299 311.394C558.018 313.435 554.284 314.456 550.098 314.456ZM537.624 286.455H561.468C561.242 283.48 560.054 281.029 557.905 279.104C555.811 277.121 552.983 276.129 549.419 276.129C546.477 276.129 543.931 277.063 541.782 278.929C539.689 280.796 538.303 283.305 537.624 286.455Z" mask="url(#path-1-outside-1_3187_114)"/><path stroke="#fff" stroke-width=".6" d="M584.73 250.403V313.056H576.924V250.403H584.73Z" mask="url(#path-1-outside-1_3187_114)"/><path stroke="#fff" stroke-width=".6" d="M591.453 291.617C591.453 285.025 593.461 279.571 597.477 275.254C601.55 270.937 606.67 268.779 612.836 268.779C619.003 268.779 624.094 270.937 628.11 275.254C632.184 279.571 634.22 285.025 634.22 291.617C634.22 298.268 632.184 303.722 628.11 307.981C624.094 312.298 619.003 314.456 612.836 314.456C606.67 314.456 601.55 312.298 597.477 307.981C593.461 303.664 591.453 298.21 591.453 291.617ZM599.259 291.617C599.259 296.226 600.56 299.96 603.163 302.818C605.765 305.677 608.989 307.106 612.836 307.106C616.683 307.106 619.908 305.677 622.51 302.818C625.112 299.96 626.413 296.226 626.413 291.617C626.413 287.067 625.112 283.363 622.51 280.504C619.851 277.588 616.627 276.129 612.836 276.129C609.046 276.129 605.822 277.588 603.163 280.504C600.56 283.363 599.259 287.067 599.259 291.617Z" mask="url(#path-1-outside-1_3187_114)"/><path stroke="#fff" stroke-width=".6" d="M661.263 307.106C664.996 307.106 668.136 305.647 670.682 302.731C673.227 299.872 674.5 296.168 674.5 291.617C674.5 287.126 673.227 283.421 670.682 280.504C668.136 277.588 664.996 276.129 661.263 276.129C657.472 276.129 654.304 277.588 651.759 280.504C649.27 283.421 648.025 287.126 648.025 291.617C648.025 296.168 649.27 299.901 651.759 302.818C654.304 305.677 657.472 307.106 661.263 307.106ZM662.536 314.456C659.481 314.456 656.68 313.785 654.135 312.444C651.646 311.102 649.722 309.323 648.365 307.106H648.025L648.365 313.056V331.957H640.558V270.179H648.025V276.129H648.365C649.722 273.912 651.646 272.133 654.135 270.791C656.68 269.45 659.481 268.779 662.536 268.779C668.023 268.779 672.662 270.996 676.452 275.429C680.355 279.921 682.307 285.317 682.307 291.617C682.307 297.976 680.355 303.372 676.452 307.806C672.662 312.239 668.023 314.456 662.536 314.456Z" mask="url(#path-1-outside-1_3187_114)"/><path stroke="#fff" stroke-width=".6" d="M708.126 314.456C702.016 314.456 696.981 312.298 693.021 307.981C689.061 303.664 687.081 298.21 687.081 291.617C687.081 285.084 689.005 279.659 692.852 275.342C696.699 270.966 701.62 268.779 707.617 268.779C713.783 268.779 718.676 270.85 722.297 274.992C725.974 279.075 727.812 284.821 727.812 292.23L727.728 293.105H695.058C695.171 297.305 696.529 300.689 699.131 303.256C701.733 305.822 704.845 307.106 708.465 307.106C713.443 307.106 717.347 304.539 720.175 299.405L727.134 302.906C725.267 306.522 722.665 309.352 719.327 311.394C716.046 313.435 712.312 314.456 708.126 314.456ZM695.652 286.455H719.497C719.27 283.48 718.082 281.029 715.933 279.104C713.839 277.121 711.011 276.129 707.447 276.129C704.505 276.129 701.96 277.063 699.81 278.929C697.717 280.796 696.331 283.305 695.652 286.455Z" mask="url(#path-1-outside-1_3187_114)"/><path stroke="#fff" stroke-width=".6" d="M742.758 313.056H734.952V270.179H742.419V277.179H742.758C743.55 274.904 745.163 272.979 747.595 271.404C750.084 269.77 752.517 268.954 754.893 268.954C757.156 268.954 759.079 269.304 760.663 270.004L758.287 277.792C757.325 277.383 755.798 277.179 753.705 277.179C750.763 277.179 748.189 278.404 745.983 280.854C743.833 283.305 742.758 286.163 742.758 289.43V313.056Z" mask="url(#path-1-outside-1_3187_114)"/><path stroke="#fff" stroke-width=".6" d="M842.59 284.267C842.59 293.018 840.072 299.989 835.038 305.181C829.38 311.364 821.941 314.456 812.72 314.456C803.895 314.456 796.428 311.306 790.318 305.006C784.209 298.705 781.154 290.947 781.154 281.729C781.154 272.512 784.209 264.754 790.318 258.453C796.428 252.153 803.895 249.003 812.72 249.003C817.189 249.003 821.404 249.819 825.364 251.453C829.324 253.086 832.577 255.391 835.122 258.366L829.522 264.141C827.655 261.808 825.222 259.999 822.224 258.716C819.283 257.374 816.115 256.703 812.72 256.703C806.102 256.703 800.501 259.066 795.919 263.791C791.393 268.575 789.13 274.554 789.13 281.729C789.13 288.905 791.393 294.884 795.919 299.668C800.501 304.393 806.102 306.756 812.72 306.756C818.773 306.756 823.808 305.006 827.825 301.506C831.841 298.005 834.161 293.193 834.783 287.067H812.72V279.542H842.166C842.448 281.175 842.59 282.75 842.59 284.267Z" mask="url(#path-1-outside-1_3187_114)"/><path stroke="#fff" stroke-width=".6" d="M856.867 313.056H849.06V270.179H856.527V277.179H856.867C857.659 274.904 859.271 272.979 861.704 271.404C864.193 269.77 866.625 268.954 869.001 268.954C871.264 268.954 873.188 269.304 874.771 270.004L872.396 277.792C871.434 277.383 869.906 277.179 867.813 277.179C864.872 277.179 862.298 278.404 860.091 280.854C857.942 283.305 856.867 286.163 856.867 289.43V313.056Z" mask="url(#path-1-outside-1_3187_114)"/><path stroke="#fff" stroke-width=".6" d="M874.942 291.617C874.942 285.025 876.95 279.571 880.967 275.254C885.04 270.937 890.159 268.779 896.326 268.779C902.492 268.779 907.583 270.937 911.6 275.254C915.673 279.571 917.709 285.025 917.709 291.617C917.709 298.268 915.673 303.722 911.6 307.981C907.583 312.298 902.492 314.456 896.326 314.456C890.159 314.456 885.04 312.298 880.967 307.981C876.95 303.664 874.942 298.21 874.942 291.617ZM882.749 291.617C882.749 296.226 884.05 299.96 886.652 302.818C889.254 305.677 892.479 307.106 896.326 307.106C900.172 307.106 903.397 305.677 905.999 302.818C908.601 299.96 909.903 296.226 909.903 291.617C909.903 287.067 908.601 283.363 905.999 280.504C903.34 277.588 900.116 276.129 896.326 276.129C892.535 276.129 889.311 277.588 886.652 280.504C884.05 283.363 882.749 287.067 882.749 291.617Z" mask="url(#path-1-outside-1_3187_114)"/><path stroke="#fff" stroke-width=".6" d="M960.875 313.056H953.407V307.106H953.068C951.88 309.206 950.041 310.956 947.552 312.356C945.12 313.756 942.574 314.456 939.915 314.456C934.824 314.456 930.892 312.969 928.12 309.993C925.405 306.96 924.047 302.672 924.047 297.13V270.179H931.854V296.605C932.024 303.606 935.446 307.106 942.121 307.106C945.233 307.106 947.835 305.822 949.928 303.256C952.021 300.63 953.068 297.509 953.068 293.893V270.179H960.875V313.056Z" mask="url(#path-1-outside-1_3187_114)"/><path stroke="#fff" stroke-width=".6" d="M990.743 307.106C994.477 307.106 997.617 305.647 1000.16 302.731C1002.71 299.872 1003.98 296.168 1003.98 291.617C1003.98 287.126 1002.71 283.421 1000.16 280.504C997.617 277.588 994.477 276.129 990.743 276.129C986.953 276.129 983.785 277.588 981.24 280.504C978.75 283.421 977.506 287.126 977.506 291.617C977.506 296.168 978.75 299.901 981.24 302.818C983.785 305.677 986.953 307.106 990.743 307.106ZM992.016 314.456C988.961 314.456 986.161 313.785 983.615 312.444C981.126 311.102 979.203 309.323 977.845 307.106H977.506L977.845 313.056V331.957H970.039V270.179H977.506V276.129H977.845C979.203 273.912 981.126 272.133 983.615 270.791C986.161 269.45 988.961 268.779 992.016 268.779C997.504 268.779 1002.14 270.996 1005.93 275.429C1009.84 279.921 1011.79 285.317 1011.79 291.617C1011.79 297.976 1009.84 303.372 1005.93 307.806C1002.14 312.239 997.504 314.456 992.016 314.456Z" mask="url(#path-1-outside-1_3187_114)"/><path stroke="#fff" stroke-width=".6" d="M1050.34 301.155C1050.34 304.889 1048.76 308.039 1045.59 310.606C1042.43 313.173 1038.44 314.456 1033.63 314.456C1029.44 314.456 1025.76 313.348 1022.6 311.131C1019.43 308.856 1017.17 305.881 1015.81 302.206L1022.77 299.143C1023.78 301.71 1025.26 303.722 1027.18 305.181C1029.16 306.581 1031.31 307.281 1033.63 307.281C1036.12 307.281 1038.18 306.727 1039.82 305.618C1041.52 304.51 1042.37 303.197 1042.37 301.681C1042.37 298.939 1040.33 296.926 1036.26 295.643L1029.13 293.805C1021.04 291.705 1017 287.68 1017 281.729C1017 277.821 1018.52 274.7 1021.58 272.366C1024.69 269.975 1028.65 268.779 1033.46 268.779C1037.14 268.779 1040.45 269.683 1043.39 271.491C1046.38 273.3 1048.48 275.721 1049.67 278.754L1042.71 281.729C1041.92 279.921 1040.61 278.521 1038.8 277.529C1037.05 276.479 1035.07 275.954 1032.86 275.954C1030.83 275.954 1028.99 276.479 1027.35 277.529C1025.76 278.579 1024.97 279.863 1024.97 281.379C1024.97 283.83 1027.21 285.58 1031.68 286.63L1037.96 288.292C1046.22 290.392 1050.34 294.68 1050.34 301.155Z" mask="url(#path-1-outside-1_3187_114)"/><path fill="#60B7FF" d="M125.099 412.603C122.134 412.603 119.389 412.047 116.865 410.937C114.361 409.805 112.177 408.252 110.314 406.277C108.451 404.281 106.999 401.977 105.957 399.364C104.915 396.752 104.395 393.944 104.395 390.94C104.395 387.936 104.915 385.128 105.957 382.515C106.999 379.903 108.451 377.609 110.314 375.634C112.177 373.638 114.361 372.085 116.865 370.974C119.389 369.843 122.134 369.277 125.099 369.277C128.084 369.277 130.828 369.843 133.332 370.974C135.856 372.085 138.05 373.638 139.913 375.634C141.776 377.609 143.219 379.903 144.24 382.515C145.282 385.128 145.803 387.936 145.803 390.94C145.803 393.944 145.282 396.752 144.24 399.364C143.219 401.977 141.776 404.281 139.913 406.277C138.05 408.252 135.856 409.805 133.332 410.937C130.828 412.047 128.084 412.603 125.099 412.603ZM125.099 407.912C128.044 407.912 130.708 407.203 133.092 405.783C135.476 404.343 137.379 402.337 138.801 399.766C140.244 397.194 140.965 394.252 140.965 390.94C140.965 387.587 140.244 384.634 138.801 382.083C137.379 379.532 135.476 377.547 133.092 376.128C130.708 374.688 128.044 373.967 125.099 373.967C122.214 373.967 119.57 374.688 117.166 376.128C114.762 377.547 112.838 379.532 111.396 382.083C109.974 384.634 109.263 387.587 109.263 390.94C109.263 394.252 109.974 397.194 111.396 399.766C112.838 402.337 114.762 404.343 117.166 405.783C119.57 407.203 122.214 407.912 125.099 407.912ZM151.61 411.677V382.145H156.178V386.496H156.418C157.159 385.056 158.381 383.822 160.084 382.793C161.807 381.744 163.69 381.219 165.734 381.219C169.259 381.219 171.914 382.269 173.697 384.367C175.48 386.465 176.371 389.253 176.371 392.73V411.677H171.593V393.501C171.593 390.642 170.922 388.625 169.58 387.453C168.238 386.26 166.515 385.663 164.411 385.663C162.829 385.663 161.437 386.116 160.235 387.021C159.033 387.926 158.091 389.099 157.41 390.539C156.749 391.958 156.418 393.46 156.418 395.044V411.677H151.61ZM215.133 412.603C212.168 412.603 209.413 412.058 206.869 410.967C204.325 409.856 202.101 408.324 200.198 406.369C198.315 404.415 196.842 402.121 195.781 399.488C194.719 396.834 194.188 393.985 194.188 390.94C194.188 387.854 194.719 385.005 195.781 382.392C196.842 379.759 198.315 377.465 200.198 375.51C202.101 373.556 204.325 372.034 206.869 370.943C209.413 369.832 212.168 369.277 215.133 369.277C217.196 369.277 219.119 369.555 220.902 370.11C222.685 370.645 224.328 371.416 225.83 372.425C227.353 373.412 228.715 374.626 229.917 376.066L226.461 379.46C225.44 378.185 224.358 377.146 223.216 376.344C222.074 375.541 220.832 374.945 219.49 374.554C218.168 374.163 216.715 373.967 215.133 373.967C212.228 373.967 209.553 374.667 207.109 376.066C204.665 377.444 202.712 379.399 201.25 381.929C199.787 384.46 199.056 387.463 199.056 390.94C199.056 394.376 199.787 397.369 201.25 399.92C202.712 402.471 204.665 404.446 207.109 405.845C209.553 407.223 212.228 407.912 215.133 407.912C216.895 407.912 218.518 407.665 220.001 407.172C221.483 406.657 222.855 405.937 224.117 405.012C225.379 404.086 226.541 402.985 227.603 401.71L231.089 405.197C229.927 406.616 228.525 407.892 226.882 409.023C225.259 410.134 223.456 411.009 221.473 411.646C219.49 412.284 217.376 412.603 215.133 412.603ZM245.071 412.603C242.928 412.603 241.045 412.181 239.422 411.338C237.819 410.474 236.557 409.301 235.636 407.82C234.714 406.339 234.253 404.652 234.253 402.759C234.253 400.599 234.794 398.778 235.876 397.297C236.978 395.795 238.45 394.674 240.293 393.933C242.136 393.172 244.16 392.791 246.363 392.791C247.645 392.791 248.827 392.905 249.909 393.131C251.011 393.337 251.963 393.583 252.764 393.872C253.585 394.16 254.196 394.437 254.597 394.705V392.915C254.597 390.672 253.826 388.893 252.283 387.576C250.761 386.26 248.888 385.601 246.664 385.601C245.081 385.601 243.599 385.961 242.216 386.681C240.854 387.401 239.772 388.399 238.971 389.675L235.365 386.897C236.126 385.725 237.068 384.717 238.19 383.873C239.332 383.03 240.624 382.382 242.066 381.929C243.509 381.456 245.041 381.219 246.664 381.219C250.57 381.219 253.625 382.279 255.829 384.398C258.053 386.517 259.164 389.376 259.164 392.977V411.677H254.597V407.449H254.387C253.906 408.293 253.205 409.116 252.283 409.918C251.382 410.7 250.32 411.338 249.098 411.831C247.876 412.346 246.534 412.603 245.071 412.603ZM245.522 408.252C247.185 408.252 248.697 407.83 250.059 406.987C251.442 406.143 252.544 405.012 253.365 403.592C254.186 402.152 254.597 400.578 254.597 398.871C253.736 398.253 252.654 397.76 251.352 397.389C250.069 396.999 248.657 396.803 247.115 396.803C244.37 396.803 242.357 397.379 241.075 398.531C239.792 399.683 239.151 401.113 239.151 402.821C239.151 404.446 239.752 405.762 240.954 406.771C242.156 407.758 243.679 408.252 245.522 408.252ZM265.826 411.677V382.145H270.394V386.496H270.634C271.155 385.529 271.876 384.655 272.798 383.873C273.719 383.071 274.771 382.433 275.953 381.96C277.135 381.466 278.347 381.219 279.589 381.219C281.732 381.219 283.575 381.754 285.118 382.824C286.66 383.873 287.772 385.252 288.453 386.959C289.435 385.293 290.747 383.925 292.39 382.855C294.053 381.765 296.026 381.219 298.31 381.219C301.735 381.219 304.26 382.279 305.882 384.398C307.505 386.517 308.316 389.294 308.316 392.73V411.677H303.568V393.501C303.568 390.642 302.997 388.625 301.856 387.453C300.734 386.26 299.141 385.663 297.078 385.663C295.615 385.663 294.303 386.105 293.141 386.99C291.999 387.854 291.098 388.996 290.437 390.415C289.796 391.814 289.475 393.337 289.475 394.982V411.677H284.667V393.532C284.667 390.693 284.106 388.677 282.984 387.484C281.863 386.27 280.28 385.663 278.237 385.663C276.774 385.663 275.462 386.116 274.3 387.021C273.158 387.905 272.257 389.058 271.596 390.477C270.955 391.897 270.634 393.439 270.634 395.106V411.677H265.826ZM315.179 424.175V382.145H319.746V386.527H319.987C320.508 385.601 321.249 384.737 322.21 383.935C323.172 383.133 324.284 382.485 325.546 381.991C326.828 381.476 328.24 381.219 329.783 381.219C332.427 381.219 334.781 381.898 336.844 383.256C338.908 384.593 340.541 386.445 341.743 388.811C342.945 391.156 343.546 393.851 343.546 396.896C343.546 399.961 342.945 402.677 341.743 405.042C340.541 407.388 338.908 409.239 336.844 410.597C334.781 411.934 332.427 412.603 329.783 412.603C327.499 412.603 325.486 412.068 323.743 410.998C322.02 409.908 320.768 408.684 319.987 407.326H319.746L319.987 411.399V424.175H315.179ZM329.302 408.159C330.945 408.159 332.487 407.707 333.93 406.801C335.392 405.876 336.564 404.569 337.445 402.882C338.327 401.175 338.768 399.179 338.768 396.896C338.768 394.592 338.327 392.596 337.445 390.909C336.564 389.222 335.392 387.926 333.93 387.021C332.487 386.116 330.945 385.663 329.302 385.663C327.639 385.663 326.077 386.116 324.614 387.021C323.172 387.926 322 389.222 321.099 390.909C320.197 392.596 319.746 394.592 319.746 396.896C319.746 399.22 320.197 401.226 321.099 402.913C322 404.58 323.172 405.876 324.614 406.801C326.077 407.707 327.639 408.159 329.302 408.159ZM359.279 412.603C355.753 412.603 353.098 411.543 351.315 409.424C349.532 407.305 348.641 404.405 348.641 400.722V382.145H353.419V399.982C353.419 402.903 354.08 405.001 355.402 406.277C356.724 407.532 358.357 408.159 360.3 408.159C362.003 408.159 363.475 407.707 364.717 406.801C365.96 405.876 366.911 404.703 367.572 403.283C368.253 401.843 368.594 400.352 368.594 398.809V382.145H373.402V411.677H368.834V407.388H368.594C368.113 408.314 367.392 409.178 366.43 409.98C365.469 410.762 364.377 411.389 363.155 411.862C361.933 412.356 360.641 412.603 359.279 412.603ZM390.248 412.603C388.104 412.603 386.211 412.253 384.569 411.554C382.946 410.834 381.594 409.867 380.512 408.653C379.45 407.419 378.659 406.092 378.138 404.672L382.405 402.697C383.166 404.466 384.258 405.835 385.68 406.801C387.123 407.768 388.765 408.252 390.608 408.252C392.371 408.252 393.844 407.892 395.026 407.172C396.208 406.431 396.799 405.341 396.799 403.901C396.799 403.016 396.548 402.275 396.047 401.679C395.567 401.082 394.855 400.578 393.914 400.167C392.972 399.735 391.831 399.344 390.488 398.994L386.973 398.068C385.63 397.677 384.358 397.143 383.156 396.464C381.954 395.764 380.983 394.869 380.241 393.779C379.52 392.668 379.16 391.32 379.16 389.736C379.16 387.947 379.66 386.414 380.662 385.138C381.684 383.863 383.016 382.896 384.659 382.238C386.321 381.559 388.094 381.219 389.977 381.219C391.64 381.219 393.193 381.466 394.635 381.96C396.078 382.433 397.34 383.143 398.421 384.089C399.523 385.036 400.355 386.198 400.916 387.576L396.739 389.551C396.037 388.091 395.076 387.072 393.854 386.496C392.652 385.9 391.32 385.601 389.857 385.601C388.275 385.601 386.902 385.961 385.74 386.681C384.579 387.401 383.998 388.379 383.998 389.613C383.998 390.847 384.478 391.773 385.44 392.39C386.402 393.007 387.573 393.511 388.956 393.902L393.133 394.982C395.957 395.723 398.081 396.824 399.503 398.284C400.946 399.724 401.667 401.483 401.667 403.561C401.667 405.413 401.156 407.017 400.134 408.375C399.113 409.733 397.73 410.782 395.987 411.523C394.265 412.243 392.351 412.603 390.248 412.603Z"/><path fill="#fff" d="M427.214 399.46C426.032 399.46 424.96 399.162 423.998 398.565C423.057 397.969 422.285 397.177 421.684 396.189C421.103 395.202 420.813 394.111 420.813 392.918C420.813 391.725 421.103 390.635 421.684 389.647C422.285 388.66 423.057 387.868 423.998 387.271C424.96 386.674 426.032 386.376 427.214 386.376C428.375 386.376 429.427 386.674 430.369 387.271C431.31 387.868 432.072 388.66 432.653 389.647C433.233 390.635 433.524 391.725 433.524 392.918C433.524 394.111 433.233 395.202 432.653 396.189C432.072 397.177 431.31 397.969 430.369 398.565C429.427 399.162 428.375 399.46 427.214 399.46ZM455.508 411.681V370.206H469.151C471.415 370.206 473.498 370.731 475.401 371.78C477.304 372.808 478.827 374.249 479.969 376.1C481.111 377.931 481.681 380.06 481.681 382.488C481.681 383.949 481.421 385.409 480.9 386.87C480.379 388.31 479.558 389.627 478.436 390.82C477.334 392.013 475.922 392.97 474.199 393.69C472.496 394.41 470.463 394.77 468.099 394.77H458.062V390.203H468.88C470.263 390.203 471.555 389.873 472.757 389.215C473.979 388.557 474.96 387.652 475.702 386.5C476.463 385.327 476.843 383.99 476.843 382.488C476.843 381.254 476.533 380.06 475.912 378.908C475.291 377.736 474.409 376.779 473.268 376.038C472.146 375.277 470.794 374.897 469.211 374.897H460.316V411.681H455.508ZM465.274 392.671L470.503 392.394L483.274 411.434V411.681H477.625L465.274 392.671ZM496.286 412.606C494.143 412.606 492.26 412.185 490.637 411.341C489.034 410.477 487.772 409.304 486.851 407.823C485.929 406.342 485.468 404.655 485.468 402.762C485.468 400.602 486.009 398.781 487.091 397.3C488.193 395.798 489.665 394.677 491.508 393.937C493.351 393.175 495.375 392.795 497.578 392.795C498.861 392.795 500.043 392.908 501.124 393.134C502.226 393.34 503.178 393.587 503.979 393.875C504.8 394.163 505.411 394.441 505.812 394.708V392.918C505.812 390.676 505.041 388.896 503.498 387.58C501.976 386.263 500.103 385.605 497.879 385.605C496.296 385.605 494.814 385.965 493.432 386.685C492.069 387.405 490.988 388.403 490.186 389.678L486.58 386.901C487.342 385.728 488.283 384.72 489.405 383.877C490.547 383.033 491.839 382.385 493.281 381.932C494.724 381.459 496.256 381.223 497.879 381.223C501.785 381.223 504.84 382.282 507.044 384.401C509.268 386.52 510.38 389.38 510.38 392.98V411.681H505.812V407.453H505.602C505.121 408.296 504.42 409.119 503.498 409.922C502.597 410.703 501.535 411.341 500.313 411.835C499.091 412.349 497.749 412.606 496.286 412.606ZM496.737 408.255C498.4 408.255 499.912 407.833 501.275 406.99C502.657 406.146 503.759 405.015 504.58 403.595C505.401 402.155 505.812 400.582 505.812 398.874C504.951 398.257 503.869 397.763 502.567 397.393C501.285 397.002 499.872 396.806 498.33 396.806C495.585 396.806 493.572 397.383 492.29 398.535C491.008 399.687 490.367 401.116 490.367 402.824C490.367 404.449 490.968 405.766 492.17 406.774C493.372 407.761 494.894 408.255 496.737 408.255ZM517.041 411.681V382.148H521.609V386.5H521.849C522.37 385.533 523.091 384.658 524.013 383.877C524.934 383.074 525.986 382.436 527.168 381.963C528.35 381.47 529.562 381.223 530.804 381.223C532.947 381.223 534.79 381.758 536.333 382.827C537.876 383.877 538.987 385.255 539.668 386.962C540.65 385.296 541.962 383.928 543.605 382.858C545.268 381.768 547.241 381.223 549.525 381.223C552.95 381.223 555.475 382.282 557.097 384.401C558.72 386.52 559.531 389.297 559.531 392.733V411.681H554.783V393.505C554.783 390.645 554.213 388.629 553.071 387.456C551.949 386.263 550.356 385.666 548.293 385.666C546.83 385.666 545.518 386.109 544.356 386.993C543.214 387.857 542.313 388.999 541.652 390.419C541.011 391.818 540.69 393.34 540.69 394.986V411.681H535.882V393.535C535.882 390.696 535.321 388.68 534.199 387.487C533.078 386.273 531.495 385.666 529.452 385.666C527.989 385.666 526.677 386.119 525.515 387.024C524.373 387.909 523.472 389.061 522.811 390.48C522.17 391.9 521.849 393.443 521.849 395.109V411.681H517.041ZM578.654 412.606C576.05 412.606 573.706 411.938 571.622 410.6C569.539 409.243 567.896 407.391 566.694 405.046C565.492 402.68 564.891 399.964 564.891 396.899C564.891 393.854 565.492 391.159 566.694 388.814C567.896 386.448 569.539 384.597 571.622 383.259C573.706 381.902 576.05 381.223 578.654 381.223C580.197 381.223 581.599 381.48 582.861 381.994C584.143 382.488 585.265 383.136 586.227 383.938C587.188 384.741 587.929 385.605 588.45 386.53H588.691L588.45 382.426V370.206H593.258V411.681H588.691V407.329H588.45C587.929 408.214 587.188 409.068 586.227 409.891C585.265 410.693 584.143 411.341 582.861 411.835C581.599 412.349 580.197 412.606 578.654 412.606ZM579.135 408.163C580.798 408.163 582.35 407.71 583.793 406.805C585.255 405.879 586.437 404.583 587.338 402.917C588.24 401.23 588.691 399.224 588.691 396.899C588.691 394.595 588.24 392.599 587.338 390.912C586.437 389.225 585.255 387.929 583.793 387.024C582.35 386.119 580.798 385.666 579.135 385.666C577.492 385.666 575.94 386.119 574.477 387.024C573.035 387.929 571.863 389.225 570.961 390.912C570.06 392.599 569.609 394.595 569.609 396.899C569.609 399.183 570.06 401.178 570.961 402.886C571.863 404.573 573.035 405.879 574.477 406.805C575.94 407.71 577.492 408.163 579.135 408.163ZM612.868 412.606C610.083 412.606 607.609 411.938 605.445 410.6C603.302 409.243 601.619 407.391 600.397 405.046C599.175 402.68 598.564 399.985 598.564 396.961C598.564 394.142 599.135 391.54 600.277 389.153C601.419 386.746 603.031 384.823 605.115 383.383C607.198 381.943 609.652 381.223 612.477 381.223C615.342 381.223 617.796 381.871 619.839 383.167C621.882 384.442 623.455 386.222 624.557 388.505C625.679 390.789 626.24 393.402 626.24 396.344C626.24 396.611 626.23 396.878 626.21 397.146C626.19 397.413 626.16 397.64 626.119 397.825H601.359V393.782H621.161C621.121 392.98 620.941 392.106 620.62 391.159C620.3 390.213 619.789 389.328 619.088 388.505C618.407 387.662 617.525 386.983 616.443 386.469C615.382 385.934 614.06 385.666 612.477 385.666C610.594 385.666 608.961 386.16 607.579 387.148C606.217 388.135 605.165 389.483 604.424 391.19C603.702 392.877 603.342 394.801 603.342 396.961C603.342 399.471 603.813 401.559 604.754 403.225C605.696 404.892 606.908 406.136 608.39 406.959C609.873 407.761 611.425 408.163 613.048 408.163C615.151 408.163 616.884 407.648 618.246 406.62C619.629 405.591 620.731 404.326 621.552 402.824L625.639 404.861C624.497 407.083 622.874 408.934 620.771 410.415C618.667 411.876 616.033 412.606 612.868 412.606ZM645.355 412.606C642.471 412.606 639.916 411.917 637.693 410.539C635.469 409.14 633.726 407.257 632.464 404.892C631.222 402.505 630.601 399.841 630.601 396.899C630.601 393.978 631.222 391.334 632.464 388.968C633.726 386.582 635.469 384.699 637.693 383.321C639.916 381.922 642.471 381.223 645.355 381.223C648.26 381.223 650.814 381.932 653.018 383.352C655.242 384.751 656.984 386.644 658.247 389.03C659.509 391.396 660.14 394.019 660.14 396.899C660.14 399.841 659.509 402.505 658.247 404.892C656.984 407.257 655.242 409.14 653.018 410.539C650.814 411.917 648.26 412.606 645.355 412.606ZM645.355 408.163C647.098 408.163 648.731 407.72 650.253 406.836C651.776 405.93 653.008 404.645 653.949 402.978C654.891 401.291 655.362 399.265 655.362 396.899C655.362 394.554 654.891 392.548 653.949 390.882C653.008 389.195 651.776 387.909 650.253 387.024C648.731 386.119 647.098 385.666 645.355 385.666C643.632 385.666 642 386.119 640.457 387.024C638.915 387.909 637.673 389.195 636.731 390.882C635.79 392.548 635.319 394.554 635.319 396.899C635.319 399.265 635.79 401.291 636.731 402.978C637.673 404.645 638.915 405.93 640.457 406.836C642 407.72 643.632 408.163 645.355 408.163ZM680.042 412.606C678.499 412.606 677.087 412.349 675.805 411.835C674.543 411.341 673.431 410.693 672.469 409.891C671.508 409.068 670.766 408.214 670.245 407.329H670.005V411.681H665.438V370.206H670.245V382.426L670.005 386.53H670.245C670.766 385.605 671.508 384.741 672.469 383.938C673.431 383.136 674.543 382.488 675.805 381.994C677.087 381.48 678.499 381.223 680.042 381.223C682.686 381.223 685.04 381.902 687.103 383.259C689.167 384.597 690.799 386.448 692.001 388.814C693.203 391.159 693.804 393.854 693.804 396.899C693.804 399.964 693.203 402.68 692.001 405.046C690.799 407.391 689.167 409.243 687.103 410.6C685.04 411.938 682.686 412.606 680.042 412.606ZM679.561 408.163C681.204 408.163 682.746 407.71 684.189 406.805C685.651 405.879 686.823 404.573 687.704 402.886C688.586 401.178 689.027 399.183 689.027 396.899C689.027 394.595 688.586 392.599 687.704 390.912C686.823 389.225 685.651 387.929 684.189 387.024C682.746 386.119 681.204 385.666 679.561 385.666C677.898 385.666 676.336 386.119 674.873 387.024C673.431 387.929 672.259 389.225 671.357 390.912C670.456 392.599 670.005 394.595 670.005 396.899C670.005 399.224 670.456 401.23 671.357 402.917C672.259 404.583 673.431 405.879 674.873 406.805C676.336 407.71 677.898 408.163 679.561 408.163ZM708.587 412.606C706.444 412.606 704.561 412.185 702.938 411.341C701.335 410.477 700.073 409.304 699.152 407.823C698.23 406.342 697.77 404.655 697.77 402.762C697.77 400.602 698.31 398.781 699.392 397.3C700.494 395.798 701.966 394.677 703.81 393.937C705.653 393.175 707.676 392.795 709.88 392.795C711.162 392.795 712.344 392.908 713.425 393.134C714.527 393.34 715.479 393.587 716.28 393.875C717.101 394.163 717.712 394.441 718.113 394.708V392.918C718.113 390.676 717.342 388.896 715.799 387.58C714.277 386.263 712.404 385.605 710.18 385.605C708.597 385.605 707.115 385.965 705.733 386.685C704.37 387.405 703.289 388.403 702.487 389.678L698.881 386.901C699.643 385.728 700.584 384.72 701.706 383.877C702.848 383.033 704.14 382.385 705.582 381.932C707.025 381.459 708.557 381.223 710.18 381.223C714.086 381.223 717.142 382.282 719.345 384.401C721.569 386.52 722.681 389.38 722.681 392.98V411.681H718.113V407.453H717.903C717.422 408.296 716.721 409.119 715.799 409.922C714.898 410.703 713.836 411.341 712.614 411.835C711.392 412.349 710.05 412.606 708.587 412.606ZM709.038 408.255C710.701 408.255 712.213 407.833 713.576 406.99C714.958 406.146 716.06 405.015 716.881 403.595C717.702 402.155 718.113 400.582 718.113 398.874C717.252 398.257 716.17 397.763 714.868 397.393C713.586 397.002 712.173 396.806 710.631 396.806C707.886 396.806 705.873 397.383 704.591 398.535C703.309 399.687 702.668 401.116 702.668 402.824C702.668 404.449 703.269 405.766 704.471 406.774C705.673 407.761 707.195 408.255 709.038 408.255ZM743.946 412.606C742.404 412.606 740.992 412.349 739.709 411.835C738.447 411.341 737.335 410.693 736.374 409.891C735.412 409.068 734.671 408.214 734.15 407.329H733.91V411.681H729.342V370.206H734.15V382.426L733.91 386.53H734.15C734.671 385.605 735.412 384.741 736.374 383.938C737.335 383.136 738.447 382.488 739.709 381.994C740.992 381.48 742.404 381.223 743.946 381.223C746.591 381.223 748.945 381.902 751.008 383.259C753.071 384.597 754.704 386.448 755.906 388.814C757.108 391.159 757.709 393.854 757.709 396.899C757.709 399.964 757.108 402.68 755.906 405.046C754.704 407.391 753.071 409.243 751.008 410.6C748.945 411.938 746.591 412.606 743.946 412.606ZM743.466 408.163C745.108 408.163 746.651 407.71 748.093 406.805C749.556 405.879 750.728 404.573 751.609 402.886C752.49 401.178 752.931 399.183 752.931 396.899C752.931 394.595 752.49 392.599 751.609 390.912C750.728 389.225 749.556 387.929 748.093 387.024C746.651 386.119 745.108 385.666 743.466 385.666C741.803 385.666 740.24 386.119 738.778 387.024C737.335 387.929 736.164 389.225 735.262 390.912C734.361 392.599 733.91 394.595 733.91 396.899C733.91 399.224 734.361 401.23 735.262 402.917C736.164 404.583 737.335 405.879 738.778 406.805C740.24 407.71 741.803 408.163 743.466 408.163ZM772.492 412.606C770.349 412.606 768.465 412.185 766.843 411.341C765.24 410.477 763.978 409.304 763.057 407.823C762.135 406.342 761.674 404.655 761.674 402.762C761.674 400.602 762.215 398.781 763.297 397.3C764.399 395.798 765.871 394.677 767.714 393.937C769.557 393.175 771.581 392.795 773.784 392.795C775.066 392.795 776.248 392.908 777.33 393.134C778.432 393.34 779.383 393.587 780.185 393.875C781.006 394.163 781.617 394.441 782.018 394.708V392.918C782.018 390.676 781.247 388.896 779.704 387.58C778.181 386.263 776.308 385.605 774.085 385.605C772.502 385.605 771.02 385.965 769.637 386.685C768.275 387.405 767.193 388.403 766.392 389.678L762.786 386.901C763.547 385.728 764.489 384.72 765.611 383.877C766.753 383.033 768.045 382.385 769.487 381.932C770.93 381.459 772.462 381.223 774.085 381.223C777.991 381.223 781.046 382.282 783.25 384.401C785.474 386.52 786.585 389.38 786.585 392.98V411.681H782.018V407.453H781.807C781.327 408.296 780.626 409.119 779.704 409.922C778.803 410.703 777.741 411.341 776.519 411.835C775.297 412.349 773.954 412.606 772.492 412.606ZM772.943 408.255C774.606 408.255 776.118 407.833 777.48 406.99C778.863 406.146 779.964 405.015 780.786 403.595C781.607 402.155 782.018 400.582 782.018 398.874C781.156 398.257 780.075 397.763 778.772 397.393C777.49 397.002 776.078 396.806 774.535 396.806C771.791 396.806 769.778 397.383 768.496 398.535C767.213 399.687 766.572 401.116 766.572 402.824C766.572 404.449 767.173 405.766 768.375 406.774C769.577 407.761 771.1 408.255 772.943 408.255ZM820.049 412.606C817.104 412.606 814.52 411.927 812.296 410.57C810.092 409.191 808.359 407.278 807.097 404.83C805.835 402.361 805.204 399.532 805.204 396.344V370.206H810.012V396.56C810.012 398.72 810.383 400.664 811.124 402.392C811.885 404.099 813.007 405.447 814.489 406.434C815.972 407.422 817.825 407.916 820.049 407.916C822.272 407.916 824.135 407.422 825.638 406.434C827.14 405.447 828.262 404.099 829.003 402.392C829.765 400.664 830.145 398.72 830.145 396.56V370.206H834.923V396.344C834.923 399.532 834.332 402.361 833.15 404.83C831.968 407.278 830.266 409.191 828.042 410.57C825.838 411.927 823.174 412.606 820.049 412.606ZM842.035 411.681V382.148H846.603V386.5H846.843C847.585 385.059 848.807 383.825 850.509 382.796C852.232 381.747 854.115 381.223 856.159 381.223C859.685 381.223 862.339 382.272 864.122 384.37C865.905 386.469 866.796 389.256 866.796 392.733V411.681H862.018V393.505C862.018 390.645 861.347 388.629 860.005 387.456C858.663 386.263 856.94 385.666 854.836 385.666C853.254 385.666 851.862 386.119 850.66 387.024C849.458 387.929 848.516 389.102 847.835 390.542C847.174 391.962 846.843 393.463 846.843 395.048V411.681H842.035ZM874.128 411.681V382.148H878.936V411.681H874.128ZM876.502 376.686C875.561 376.686 874.749 376.347 874.068 375.668C873.407 374.969 873.077 374.135 873.077 373.168C873.077 372.16 873.407 371.317 874.068 370.638C874.749 369.959 875.561 369.62 876.502 369.62C877.484 369.62 878.305 369.959 878.966 370.638C879.627 371.317 879.958 372.16 879.958 373.168C879.958 374.135 879.627 374.969 878.966 375.668C878.305 376.347 877.484 376.686 876.502 376.686ZM894.899 411.681L883.269 382.148H888.408L897.333 405.879H897.423L906.468 382.148H911.486L899.737 411.681H894.899ZM927.371 412.606C924.586 412.606 922.112 411.938 919.948 410.6C917.805 409.243 916.122 407.391 914.9 405.046C913.678 402.68 913.067 399.985 913.067 396.961C913.067 394.142 913.638 391.54 914.78 389.153C915.922 386.746 917.534 384.823 919.618 383.383C921.701 381.943 924.155 381.223 926.98 381.223C929.845 381.223 932.299 381.871 934.342 383.167C936.385 384.442 937.958 386.222 939.06 388.505C940.182 390.789 940.743 393.402 940.743 396.344C940.743 396.611 940.733 396.878 940.713 397.146C940.693 397.413 940.663 397.64 940.622 397.825H915.862V393.782H935.664C935.624 392.98 935.444 392.106 935.123 391.159C934.803 390.213 934.292 389.328 933.591 388.505C932.91 387.662 932.028 386.983 930.947 386.469C929.885 385.934 928.563 385.666 926.98 385.666C925.097 385.666 923.464 386.16 922.082 387.148C920.72 388.135 919.668 389.483 918.927 391.19C918.206 392.877 917.845 394.801 917.845 396.961C917.845 399.471 918.316 401.559 919.257 403.225C920.199 404.892 921.411 406.136 922.893 406.959C924.376 407.761 925.928 408.163 927.551 408.163C929.654 408.163 931.387 407.648 932.75 406.62C934.132 405.591 935.234 404.326 936.055 402.824L940.142 404.861C939 407.083 937.377 408.934 935.274 410.415C933.17 411.876 930.536 412.606 927.371 412.606ZM946.324 411.681V382.148H950.892V386.901H951.132C951.513 385.769 952.144 384.792 953.026 383.969C953.907 383.146 954.919 382.498 956.06 382.025C957.202 381.531 958.344 381.284 959.486 381.284C960.348 381.284 961.019 381.336 961.5 381.439C962 381.521 962.451 381.655 962.852 381.84V387.178C962.251 386.87 961.6 386.644 960.899 386.5C960.217 386.335 959.516 386.253 958.795 386.253C957.413 386.253 956.131 386.664 954.949 387.487C953.787 388.289 952.855 389.369 952.154 390.727C951.473 392.064 951.132 393.546 951.132 395.171V411.681H946.324ZM976.384 412.606C974.24 412.606 972.347 412.257 970.705 411.557C969.082 410.837 967.73 409.87 966.648 408.656C965.586 407.422 964.795 406.095 964.274 404.676L968.541 402.701C969.302 404.47 970.394 405.838 971.816 406.805C973.259 407.772 974.901 408.255 976.745 408.255C978.507 408.255 979.98 407.895 981.162 407.175C982.344 406.434 982.935 405.344 982.935 403.904C982.935 403.019 982.684 402.279 982.184 401.682C981.703 401.086 980.992 400.582 980.05 400.17C979.108 399.738 977.967 399.347 976.624 398.997L973.109 398.072C971.766 397.681 970.494 397.146 969.292 396.467C968.09 395.768 967.119 394.873 966.377 393.782C965.656 392.671 965.296 391.324 965.296 389.74C965.296 387.95 965.796 386.417 966.798 385.142C967.82 383.866 969.152 382.899 970.795 382.241C972.457 381.562 974.23 381.223 976.113 381.223C977.776 381.223 979.329 381.47 980.771 381.963C982.214 382.436 983.476 383.146 984.557 384.093C985.659 385.039 986.491 386.201 987.052 387.58L982.875 389.555C982.173 388.094 981.212 387.076 979.99 386.5C978.788 385.903 977.456 385.605 975.993 385.605C974.411 385.605 973.038 385.965 971.876 386.685C970.715 387.405 970.134 388.382 970.134 389.616C970.134 390.851 970.614 391.776 971.576 392.394C972.538 393.011 973.71 393.515 975.092 393.906L979.269 394.986C982.093 395.726 984.217 396.827 985.639 398.288C987.082 399.728 987.803 401.487 987.803 403.565C987.803 405.416 987.292 407.021 986.27 408.379C985.249 409.736 983.866 410.786 982.123 411.526C980.401 412.246 978.487 412.606 976.384 412.606ZM993.195 411.681V382.148H998.003V411.681H993.195ZM995.569 376.686C994.627 376.686 993.816 376.347 993.135 375.668C992.474 374.969 992.143 374.135 992.143 373.168C992.143 372.16 992.474 371.317 993.135 370.638C993.816 369.959 994.627 369.62 995.569 369.62C996.55 369.62 997.372 369.959 998.033 370.638C998.694 371.317 999.024 372.16 999.024 373.168C999.024 374.135 998.694 374.969 998.033 375.668C997.372 376.347 996.55 376.686 995.569 376.686ZM1003.26 382.148H1020.11V386.592H1003.26V382.148ZM1008.27 403.904V373.786H1013.05V402.701C1013.05 404.243 1013.36 405.447 1013.98 406.311C1014.6 407.155 1015.63 407.576 1017.05 407.576C1017.69 407.576 1018.27 407.484 1018.79 407.299C1019.33 407.093 1019.81 406.856 1020.23 406.589V411.403C1019.73 411.629 1019.19 411.804 1018.61 411.927C1018.03 412.071 1017.25 412.143 1016.27 412.143C1013.86 412.143 1011.93 411.423 1010.47 409.983C1009.01 408.523 1008.27 406.496 1008.27 403.904ZM1034.31 422.697C1034.21 422.965 1034.08 423.263 1033.92 423.592C1033.78 423.921 1033.69 424.117 1033.65 424.178H1028.69C1028.91 423.685 1029.15 423.139 1029.41 422.543C1029.67 421.946 1029.99 421.226 1030.38 420.383C1030.6 419.868 1030.8 419.395 1030.98 418.963C1031.18 418.552 1031.4 418.079 1031.64 417.544C1031.88 417.029 1032.17 416.392 1032.51 415.63L1036.48 406.805L1037.53 404.089L1046.21 382.148H1051.41L1036.51 417.42C1036.37 417.77 1036.13 418.315 1035.81 419.056C1035.49 419.817 1035.19 420.547 1034.91 421.247C1034.63 421.967 1034.43 422.45 1034.31 422.697ZM1035.39 410.477L1023.22 382.148H1028.39L1037.44 404.089H1037.89L1035.39 410.477Z"/><path fill="#FD2B25" d="M493.07 10.0467L408.496 68.9836C390.747 81.3524 386.697 105.334 399.451 122.547C412.205 139.76 436.935 143.687 454.684 131.318L539.258 72.3812C557.007 60.0124 561.057 36.0314 548.303 18.8182C535.549 1.60495 510.819 -2.32211 493.07 10.0467Z"/><path fill="#1E1E1E" d="M431.768 141.518C429.523 141.518 427.12 141.362 424.878 140.896C413.663 139.187 403.888 133.127 397.161 124.27C390.59 115.258 387.868 104.381 389.791 93.5046C391.553 82.6277 397.8 73.1495 406.933 66.6234L491.531 7.73338C500.824 1.3628 512.039 -1.27888 523.254 0.585726C534.469 2.2951 544.244 8.35491 550.971 17.2116C557.541 26.2239 560.267 37.1007 558.341 47.9776C556.579 58.8542 550.331 68.3327 541.199 74.8585L456.601 133.749C449.231 138.876 440.741 141.518 431.928 141.518H431.768ZM516.203 5.71354C508.673 5.71354 501.144 8.04415 494.893 12.3949L410.298 71.2849C402.285 76.8787 397.161 84.9586 395.558 94.4369C393.955 103.76 396.198 113.238 401.965 120.852C407.733 128.621 416.066 133.593 425.838 135.147C435.453 136.701 445.226 134.526 453.075 128.932L537.674 70.0418C545.684 64.448 550.811 56.368 552.414 46.8898C554.016 37.5668 551.774 28.0885 546.006 20.4748C540.236 12.7057 531.906 7.73338 522.131 6.17954C520.208 5.86877 518.126 5.71354 516.203 5.71354Z"/><path fill="#1F86FB" d="M454.775 69.1165C437.026 56.7474 412.3 60.6744 399.545 77.888C386.791 95.1012 390.838 119.082 408.587 131.451L493.161 190.388C510.91 202.757 535.64 198.83 548.394 181.617C561.148 164.403 557.098 140.422 539.349 128.053L454.775 69.1165Z"/><path fill="#1E1E1E" d="M516.198 200.408C507.388 200.408 498.735 197.766 491.525 192.639L406.927 133.749C387.862 120.541 383.534 94.5923 397.155 76.1018C403.725 67.0895 413.657 61.1853 424.872 59.4759C436.087 57.7668 447.305 60.253 456.598 66.6235L541.193 125.514C560.261 138.721 564.586 164.67 550.968 183.16C544.398 192.173 534.466 198.077 523.248 199.786C520.845 200.097 518.603 200.408 516.361 200.408H516.198ZM431.763 64.7589C429.84 64.7589 427.758 64.9145 425.835 65.2252C416.22 66.7788 407.73 71.9066 401.963 79.5202C396.192 87.2894 393.95 96.6125 395.552 105.935C397.155 115.258 402.442 123.493 410.292 129.087L494.89 187.977C502.9 193.571 512.513 195.746 522.128 194.193C531.741 192.639 540.233 187.511 546.001 179.898C551.768 172.128 554.01 162.805 552.408 153.482C550.808 144.159 545.521 135.924 537.668 130.33L453.073 71.4403C446.822 67.0895 439.452 64.7589 431.763 64.7589Z"/><path fill="#FFA600" d="M680.505 69.057L595.931 127.994C578.182 140.363 574.135 164.344 586.889 181.557C599.643 198.77 624.37 202.697 642.119 190.329L726.693 131.392C744.442 119.023 748.492 95.0414 735.738 77.8282C722.983 60.615 698.254 56.6879 680.505 69.057Z"/><path fill="#1E1E1E" d="M619.045 200.372C605.748 200.372 592.77 194.468 584.438 183.28C570.82 164.79 575.145 138.996 594.213 125.634L678.808 66.7436C688.101 60.3727 699.318 57.7314 710.533 59.596C721.748 61.305 731.521 67.3651 738.251 76.2219C751.871 94.7124 747.543 120.506 728.479 133.869L643.88 192.759C636.351 198.042 627.698 200.528 619.045 200.528V200.372ZM703.483 64.7235C695.953 64.7235 688.423 67.0544 682.173 71.4051L597.578 130.295C581.235 141.793 577.387 164.013 589.245 179.862C601.103 195.711 624.013 199.44 640.355 187.942L724.954 129.052C741.296 117.554 745.141 95.3339 733.283 79.4848C727.516 71.7159 719.186 66.7436 709.411 65.1898C707.488 64.879 705.406 64.7235 703.483 64.7235Z"/><path fill="#00AA47" d="M642.049 9.8856C624.3 -2.4832 599.571 1.44386 586.816 18.6571C574.062 35.8703 578.112 59.8514 595.861 72.2205L680.435 131.157C698.184 143.526 722.911 139.599 735.665 122.386C748.419 105.173 744.372 81.1917 726.623 68.8225L642.049 9.8856Z"/><path fill="#1E1E1E" d="M703.483 141.481C694.671 141.481 686.018 138.84 678.808 133.712L594.213 74.8221C575.145 61.6146 570.82 35.6656 584.438 17.1751C598.058 -1.31537 624.816 -5.51058 643.88 7.69689L728.479 66.5869C747.543 79.7943 751.871 105.743 738.251 124.234C731.681 133.246 721.748 139.151 710.533 140.86C708.128 141.17 705.886 141.481 703.643 141.481H703.483ZM589.245 20.4384C583.478 28.2075 581.235 37.5303 582.835 46.8533C584.437 56.1763 589.725 64.4115 597.578 70.0053L682.173 128.895C690.186 134.489 699.798 136.664 709.411 135.111C719.023 133.557 727.516 128.429 733.283 120.815C739.054 113.046 741.296 103.723 739.694 94.4004C738.091 85.0774 732.803 76.8422 724.954 71.2484L640.355 12.3584C624.013 0.859997 601.103 4.58921 589.245 20.4384Z"/></svg>